<svg width="20" height="21" viewBox="0 0 20 21" fill="none" xmlns="http://www.w3.org/2000/svg">
<g clip-path="url(#clip0_8_12579)">
<path opacity="0.12" d="M10.2995 3.37578C10.1901 3.32111 10.1355 3.29378 10.0781 3.28303C10.0274 3.2735 9.97525 3.2735 9.92447 3.28303C9.86714 3.29378 9.81247 3.32111 9.70314 3.37578L1.66797 7.39328L9.70314 11.4109C9.81247 11.4656 9.86714 11.4929 9.92447 11.5037C9.97525 11.5132 10.0274 11.5132 10.0781 11.5037C10.1355 11.4929 10.1901 11.4656 10.2995 11.4109L18.3346 7.39336L10.2995 3.37578Z" fill="#9DA4AE"/>
<path d="M4.16797 8.64336V13.6526C4.16797 13.9518 4.16797 14.1013 4.21347 14.2334C4.25376 14.3501 4.31951 14.4565 4.40597 14.5447C4.50372 14.6445 4.63747 14.7114 4.90505 14.8452L9.40505 17.0952C9.62364 17.2045 9.73297 17.2592 9.84764 17.2807C9.94922 17.2997 10.0534 17.2997 10.155 17.2807C10.2696 17.2592 10.379 17.2045 10.5976 17.0952L15.0976 14.8452C15.3651 14.7114 15.4989 14.6445 15.5966 14.5447C15.6831 14.4565 15.7488 14.3501 15.7891 14.2334C15.8346 14.1013 15.8346 13.9518 15.8346 13.6526V8.64336M1.66797 7.39336L9.70314 3.37578C9.81247 3.32111 9.86713 3.29378 9.92447 3.28303C9.97525 3.2735 10.0274 3.2735 10.0781 3.28303C10.1355 3.29378 10.1901 3.32111 10.2995 3.37578L18.3346 7.39328L10.2995 11.4109C10.1901 11.4656 10.1355 11.4929 10.0781 11.5037C10.0274 11.5132 9.97525 11.5132 9.92447 11.5037C9.86713 11.4929 9.81247 11.4656 9.70314 11.4109L1.66797 7.39336Z" stroke="#9DA4AE" stroke-width="1.66667" stroke-linecap="round" stroke-linejoin="round"/>
</g>
<defs>
<clipPath id="clip0_8_12579">
<rect width="20" height="20" fill="white" transform="translate(0 0.310059)"/>
</clipPath>
</defs>
</svg>
