<svg width="20" height="21" viewBox="0 0 20 21" fill="none" xmlns="http://www.w3.org/2000/svg">
<g clip-path="url(#clip0_8_12606)">
<path opacity="0.12" d="M7.5 2.81006H6.5C5.09983 2.81006 4.39983 2.81006 3.865 3.08256C3.39462 3.32224 3.01218 3.70467 2.7725 4.17506C2.5 4.70989 2.5 5.40989 2.5 6.81006V13.8101C2.5 15.2102 2.5 15.9102 2.7725 16.4451C3.01217 16.9155 3.39461 17.2979 3.865 17.5376C4.39983 17.8101 5.09983 17.8101 6.5 17.8101H7.5V2.81006Z" fill="#9DA4AE"/>
<path d="M14.5833 9.47673H10.4167M14.5833 12.8101H10.4167M14.5833 6.14339H10.4167M7.5 2.81006V17.8101M6.5 2.81006H13.5C14.9002 2.81006 15.6002 2.81006 16.135 3.08256C16.6054 3.32222 16.9878 3.70466 17.2275 4.17506C17.5 4.70989 17.5 5.40989 17.5 6.81006V13.8101C17.5 15.2102 17.5 15.9102 17.2275 16.4451C16.9878 16.9155 16.6054 17.2979 16.135 17.5376C15.6002 17.8101 14.9002 17.8101 13.5 17.8101H6.5C5.09983 17.8101 4.39983 17.8101 3.865 17.5376C3.39461 17.2979 3.01217 16.9155 2.7725 16.4451C2.5 15.9102 2.5 15.2102 2.5 13.8101V6.81006C2.5 5.40989 2.5 4.70989 2.7725 4.17506C3.01218 3.70467 3.39462 3.32224 3.865 3.08256C4.39983 2.81006 5.09983 2.81006 6.5 2.81006Z" stroke="#9DA4AE" stroke-width="1.66667" stroke-linecap="round" stroke-linejoin="round"/>
</g>
<defs>
<clipPath id="clip0_8_12606">
<rect width="20" height="20" fill="white" transform="translate(0 0.310059)"/>
</clipPath>
</defs>
</svg>
