<svg width="20" height="21" viewBox="0 0 20 21" fill="none" xmlns="http://www.w3.org/2000/svg">
<g clip-path="url(#clip0_8_12635)">
<path opacity="0.12" d="M2.5 7.64355C2.5 6.24339 2.5 5.54339 2.7725 5.00855C3.01218 4.53817 3.39462 4.15573 3.865 3.91605C4.39983 3.64355 5.09983 3.64355 6.5 3.64355H13.5C14.9002 3.64355 15.6002 3.64355 16.135 3.91605C16.6054 4.15572 16.9878 4.53816 17.2275 5.00855C17.5 5.54339 17.5 6.24339 17.5 7.64355V8.64355H2.5V7.64355Z" fill="#9DA4AE"/>
<path d="M17.5 8.64323H2.5M13.3333 1.97656V5.3099M6.66667 1.97656V5.3099M6.5 18.6432H13.5C14.9002 18.6432 15.6002 18.6432 16.135 18.3707C16.6054 18.1311 16.9878 17.7486 17.2275 17.2782C17.5 16.7434 17.5 16.0434 17.5 14.6432V7.64323C17.5 6.24306 17.5 5.54306 17.2275 5.00823C16.9878 4.53783 16.6054 4.15539 16.135 3.91573C15.6002 3.64323 14.9002 3.64323 13.5 3.64323H6.5C5.09983 3.64323 4.39983 3.64323 3.865 3.91573C3.39462 4.15541 3.01218 4.53784 2.7725 5.00823C2.5 5.54306 2.5 6.24306 2.5 7.64323V14.6432C2.5 16.0434 2.5 16.7434 2.7725 17.2782C3.01217 17.7486 3.39461 18.1311 3.865 18.3707C4.39983 18.6432 5.09983 18.6432 6.5 18.6432Z" stroke="#9DA4AE" stroke-width="1.66667" stroke-linecap="round" stroke-linejoin="round"/>
</g>
<defs>
<clipPath id="clip0_8_12635">
<rect width="20" height="20" fill="white" transform="translate(0 0.310059)"/>
</clipPath>
</defs>
</svg>
