<svg width="20" height="21" viewBox="0 0 20 21" fill="none" xmlns="http://www.w3.org/2000/svg">
<g clip-path="url(#clip0_8_12630)">
<path opacity="0.12" d="M18.332 12.1432C18.332 11.2098 18.332 10.7431 18.1504 10.3866C17.9906 10.073 17.7356 9.818 17.422 9.65823C17.0655 9.47656 16.5988 9.47656 15.6654 9.47656H10.9987C10.0653 9.47656 9.59853 9.47656 9.24203 9.65823C8.92843 9.818 8.67347 10.073 8.5137 10.3866C8.33203 10.7431 8.33203 11.2098 8.33203 12.1432V14.2385C8.33203 15.1719 8.33203 15.6386 8.5137 15.9951C8.67345 16.3087 8.92845 16.5637 9.24203 16.7235C9.59853 16.9051 10.0653 16.9051 10.9987 16.9051H12.4961C12.8066 16.9051 12.9619 16.9051 13.1117 16.9327C13.2446 16.9572 13.374 16.9978 13.4972 17.0536C13.6359 17.1164 13.7634 17.2051 14.0184 17.3823L15.832 18.6432V16.9051C16.6086 16.9051 16.9969 16.9051 17.3032 16.7782C17.7116 16.6091 18.036 16.2847 18.2052 15.8763C18.332 15.57 18.332 15.1817 18.332 14.4051V12.1432Z" fill="#9DA4AE"/>
<path d="M8.33464 12.8099L5.77189 15.4046C5.41439 15.7666 5.23572 15.9476 5.08214 15.9603C5.01643 15.9658 4.95036 15.9556 4.88937 15.9305C4.82837 15.9055 4.7742 15.8663 4.7313 15.8162C4.63097 15.6992 4.63097 15.4449 4.63097 14.9361V13.6362C4.63097 13.1799 4.25722 12.8496 3.80564 12.7835C3.27343 12.7055 2.78056 12.458 2.40022 12.0776C2.01988 11.6973 1.77235 11.2044 1.69439 10.6722C1.66797 10.4921 1.66797 10.277 1.66797 9.8469V5.97656C1.66797 4.5764 1.66797 3.8764 1.94047 3.34156C2.18015 2.87118 2.56258 2.48874 3.03297 2.24906C3.5678 1.97656 4.2678 1.97656 5.66797 1.97656H11.8346C13.2348 1.97656 13.9348 1.97656 14.4696 2.24906C14.94 2.48873 15.3225 2.87117 15.5621 3.34156C15.8346 3.8764 15.8346 4.5764 15.8346 5.97656V9.47656M15.8346 18.6432L14.021 17.3823C13.7661 17.2051 13.6386 17.1164 13.4998 17.0536C13.3767 16.9978 13.2472 16.9572 13.1143 16.9327C12.9645 16.9051 12.8092 16.9051 12.4987 16.9051H11.0013C10.0679 16.9051 9.60114 16.9051 9.24464 16.7235C8.93103 16.5637 8.67607 16.3087 8.5163 15.9951C8.33464 15.6386 8.33464 15.1719 8.33464 14.2385V12.1432C8.33464 11.2098 8.33464 10.7431 8.5163 10.3866C8.67607 10.073 8.93103 9.818 9.24464 9.65823C9.60114 9.47656 10.0679 9.47656 11.0013 9.47656H15.668C16.6014 9.47656 17.0681 9.47656 17.4246 9.65823C17.7382 9.81798 17.9932 10.073 18.153 10.3866C18.3346 10.7431 18.3346 11.2098 18.3346 12.1432V14.4051C18.3346 15.1817 18.3346 15.57 18.2078 15.8763C18.0386 16.2847 17.7142 16.6091 17.3058 16.7782C16.9995 16.9051 16.6112 16.9051 15.8346 16.9051V18.6432Z" stroke="#9DA4AE" stroke-width="1.66667" stroke-linecap="round" stroke-linejoin="round"/>
</g>
<defs>
<clipPath id="clip0_8_12630">
<rect width="20" height="20" fill="white" transform="translate(0 0.310059)"/>
</clipPath>
</defs>
</svg>
