<svg width="40" height="41" viewBox="0 0 40 41" fill="none" xmlns="http://www.w3.org/2000/svg">
<g clip-path="url(#clip0_8_13100)">
<path d="M17.7446 20.3523C19.9958 20.3523 21.8207 18.5274 21.8207 16.2763C21.8207 14.0251 19.9958 12.2002 17.7447 12.2002C15.4934 12.2002 13.6685 14.0252 13.6685 16.2762C13.6685 18.5274 15.4935 20.3523 17.7446 20.3523ZM17.7446 23.0697C15.1806 23.0697 12.9018 24.4687 11.4577 26.637C11.1414 27.112 10.9832 27.3495 11.0014 27.6529C11.0156 27.8891 11.1704 28.1783 11.3592 28.3211C11.6016 28.5044 11.935 28.5044 12.6019 28.5044H22.8874C23.5542 28.5044 23.8876 28.5044 24.13 28.3211C24.3188 28.1783 24.4736 27.8891 24.4878 27.6529C24.506 27.3495 24.3479 27.112 24.0315 26.637C22.5874 24.4687 20.3086 23.0697 17.7446 23.0697Z" fill="white" fill-opacity="0.01"/>
<path d="M25.4438 23.8277C26.7626 24.4902 27.8932 25.5533 28.7185 26.8827C28.8819 27.146 28.9636 27.2776 28.9919 27.4599C29.0493 27.8303 28.796 28.2857 28.451 28.4323C28.2812 28.5044 28.0902 28.5044 27.7083 28.5044M23.6322 19.9286C24.9744 19.2616 25.8967 17.8766 25.8967 16.2762C25.8967 14.6758 24.9744 13.2909 23.6322 12.6239M21.8207 16.2762C21.8207 18.5273 19.9958 20.3522 17.7447 20.3522C15.4935 20.3522 13.6686 18.5273 13.6686 16.2762C13.6686 14.0251 15.4935 12.2002 17.7446 12.2002C19.9958 12.2002 21.8207 14.0252 21.8207 16.2762ZM11.4577 26.6369C12.9018 24.4686 15.1807 23.0696 17.7447 23.0696C20.3086 23.0696 22.5874 24.4686 24.0315 26.6369C24.3479 27.1119 24.506 27.3494 24.4878 27.6528C24.4736 27.889 24.3188 28.1782 24.13 28.321C23.8876 28.5043 23.5542 28.5043 22.8874 28.5043H12.6019C11.935 28.5043 11.6016 28.5043 11.3592 28.321C11.1705 28.1782 11.0156 27.889 11.0014 27.6528C10.9832 27.3494 11.1413 27.1119 11.4577 26.6369Z" stroke="#6C737F" stroke-width="2" stroke-linecap="round" stroke-linejoin="round"/>
</g>
<defs>
<clipPath id="clip0_8_13100">
<rect width="24" height="24" fill="white" transform="translate(8 8.2002)"/>
</clipPath>
</defs>
</svg>
