<svg width="20" height="21" viewBox="0 0 20 21" fill="none" xmlns="http://www.w3.org/2000/svg">
<g clip-path="url(#clip0_8_12520)">
<path opacity="0.12" d="M10.0013 19.1134C14.6036 19.1134 18.3346 15.3824 18.3346 10.7801C18.3346 6.17769 14.6036 2.44678 10.0013 2.44678C5.39889 2.44678 1.66797 6.17769 1.66797 10.7801C1.66797 15.3824 5.39889 19.1134 10.0013 19.1134Z" fill="#9DA4AE"/>
<path d="M7.91797 7.03011H11.4596C12.4951 7.03011 13.3346 7.86961 13.3346 8.90511C13.3346 9.94061 12.4951 10.7801 11.4596 10.7801H7.91797H11.8763C12.9118 10.7801 13.7513 11.6196 13.7513 12.6551C13.7513 13.6906 12.9118 14.5301 11.8763 14.5301H7.91797M7.91797 7.03011H6.66797M7.91797 7.03011V14.5301M7.91797 14.5301H6.66797M8.33464 5.78011V7.03011M8.33464 14.5301V15.7801M10.8346 5.78011V7.03011M10.8346 14.5301V15.7801M18.3346 10.7801C18.3346 15.3824 14.6036 19.1134 10.0013 19.1134C5.39889 19.1134 1.66797 15.3824 1.66797 10.7801C1.66797 6.17769 5.39889 2.44678 10.0013 2.44678C14.6036 2.44678 18.3346 6.17769 18.3346 10.7801Z" stroke="#9DA4AE" stroke-width="1.66667" stroke-linecap="round" stroke-linejoin="round"/>
</g>
<defs>
<clipPath id="clip0_8_12520">
<rect width="20" height="20" fill="white" transform="translate(0 0.780273)"/>
</clipPath>
</defs>
</svg>
