<svg width="20" height="21" viewBox="0 0 20 21" fill="none" xmlns="http://www.w3.org/2000/svg">
<path opacity="0.12" d="M7.916 10.1099C9.98708 10.1099 11.666 8.43095 11.666 6.35986C11.666 4.28878 9.98708 2.60986 7.916 2.60986C5.84491 2.60986 4.166 4.28878 4.166 6.35986C4.166 8.43095 5.845 10.1099 7.916 10.1099ZM7.916 12.6099C5.55716 12.6099 3.46066 13.897 2.13208 15.8918C1.841 16.3289 1.69542 16.5474 1.71225 16.8264C1.72525 17.0438 1.86775 17.3099 2.04142 17.4412C2.26441 17.6099 2.57117 17.6099 3.18467 17.6099H12.6474C13.2609 17.6099 13.5677 17.6099 13.7907 17.4412C13.9643 17.3099 14.1067 17.0438 14.1198 16.8264C14.1366 16.5474 13.9911 16.3289 13.7 15.8918C12.3714 13.897 10.2749 12.6099 7.916 12.6099Z" fill="#9DA4AE"/>
<path d="M14.9994 13.3073C16.2126 13.9168 17.2529 14.8949 18.0121 16.1179C18.1625 16.3601 18.2376 16.4812 18.2636 16.6489C18.3165 16.9897 18.0834 17.4086 17.7661 17.5435C17.6098 17.6099 17.4341 17.6099 17.0827 17.6099M13.3327 9.72003C14.5676 9.10645 15.4161 7.83228 15.4161 6.35986C15.4161 4.88745 14.5676 3.61328 13.3327 2.9997M11.6661 6.35986C11.6661 8.43095 9.98714 10.1099 7.91606 10.1099C5.84497 10.1099 4.16606 8.43095 4.16606 6.35986C4.16606 4.28878 5.84506 2.60986 7.91606 2.60986C9.98714 2.60986 11.6661 4.28878 11.6661 6.35986ZM2.13214 15.8918C3.46072 13.897 5.55722 12.6099 7.91606 12.6099C10.275 12.6099 12.3715 13.897 13.7001 15.8918C13.9911 16.3289 14.1366 16.5474 14.1199 16.8264C14.1068 17.0438 13.9644 17.3099 13.7907 17.4412C13.5677 17.6099 13.261 17.6099 12.6475 17.6099H3.18472C2.57122 17.6099 2.26447 17.6099 2.04139 17.4412C1.86781 17.3099 1.72531 17.0438 1.71222 16.8264C1.69556 16.5474 1.84106 16.3289 2.13214 15.8918Z" stroke="#9DA4AE" stroke-width="1.66667" stroke-linecap="round" stroke-linejoin="round"/>
</svg>
