<svg width="20" height="21" viewBox="0 0 20 21" fill="none" xmlns="http://www.w3.org/2000/svg">
<g clip-path="url(#clip0_8_12515)">
<path opacity="0.12" d="M6.5 17.6602H13.5C14.9002 17.6602 15.6002 17.6602 16.135 17.3877C16.6054 17.148 16.9878 16.7656 17.2275 16.2952C17.5 15.7603 17.5 15.0603 17.5 13.6602V7.66016L12.1263 11.4986C11.9629 11.6152 11.8813 11.6735 11.7939 11.6911C11.7169 11.7066 11.637 11.7 11.5635 11.672C11.4802 11.6403 11.4092 11.5693 11.2673 11.4275L8.73267 8.89282C8.59083 8.75099 8.51983 8.67999 8.4365 8.64832C8.36304 8.62033 8.28315 8.61372 8.20608 8.62924C8.11867 8.64682 8.03708 8.70516 7.87375 8.82174L2.5 12.6602V13.6602C2.5 15.0603 2.5 15.7603 2.7725 16.2952C3.01217 16.7655 3.39461 17.148 3.865 17.3877C4.39983 17.6602 5.09983 17.6602 6.5 17.6602Z" fill="#9DA4AE"/>
<path d="M17.5 7.66016L12.1263 11.4986C11.9629 11.6152 11.8813 11.6735 11.7939 11.6911C11.7168 11.7066 11.637 11.7 11.5635 11.672C11.4802 11.6403 11.4092 11.5693 11.2673 11.4275L8.73267 8.89282C8.59083 8.75099 8.51983 8.67999 8.4365 8.64832C8.36304 8.62033 8.28315 8.61372 8.20608 8.62924C8.11867 8.64682 8.03708 8.70516 7.87375 8.82174L2.5 12.6602M6.5 17.6602H13.5C14.9002 17.6602 15.6002 17.6602 16.135 17.3877C16.6054 17.148 16.9878 16.7656 17.2275 16.2952C17.5 15.7603 17.5 15.0603 17.5 13.6602V6.66016C17.5 5.25999 17.5 4.55999 17.2275 4.02516C16.9878 3.55476 16.6054 3.17232 16.135 2.93266C15.6002 2.66016 14.9002 2.66016 13.5 2.66016H6.5C5.09983 2.66016 4.39983 2.66016 3.865 2.93266C3.39462 3.17234 3.01218 3.55477 2.7725 4.02516C2.5 4.55999 2.5 5.25999 2.5 6.66016V13.6602C2.5 15.0603 2.5 15.7603 2.7725 16.2952C3.01217 16.7655 3.39461 17.148 3.865 17.3877C4.39983 17.6602 5.09983 17.6602 6.5 17.6602Z" stroke="#9DA4AE" stroke-width="1.66667" stroke-linecap="round" stroke-linejoin="round"/>
</g>
<defs>
<clipPath id="clip0_8_12515">
<rect width="20" height="20" fill="white" transform="translate(0 0.160156)"/>
</clipPath>
</defs>
</svg>
