<svg width="20" height="21" viewBox="0 0 20 21" fill="none" xmlns="http://www.w3.org/2000/svg">
<g clip-path="url(#clip0_8_12615)">
<path opacity="0.12" d="M10.0013 18.6432C14.6036 18.6432 18.3346 14.9122 18.3346 10.3099C18.3346 5.70748 14.6036 1.97656 10.0013 1.97656C5.39889 1.97656 1.66797 5.70748 1.66797 10.3099C1.66797 14.9122 5.39889 18.6432 10.0013 18.6432Z" fill="#9DA4AE"/>
<path d="M13.3346 10.3099L10.0013 6.97656M10.0013 6.97656L6.66797 10.3099M10.0013 6.97656V14.6432C10.0013 15.8021 10.0013 16.3816 10.4601 17.0304C10.7649 17.4615 11.6425 17.9935 12.1656 18.0644C12.9531 18.1711 13.2521 18.0151 13.8501 17.7031C16.5152 16.3129 18.3346 13.5239 18.3346 10.3099C18.3346 5.70748 14.6036 1.97656 10.0013 1.97656C5.39889 1.97656 1.66797 5.70748 1.66797 10.3099C1.66797 13.3944 3.3438 16.0875 5.83464 17.5284" stroke="#9DA4AE" stroke-width="1.66667" stroke-linecap="round" stroke-linejoin="round"/>
</g>
<defs>
<clipPath id="clip0_8_12615">
<rect width="20" height="20" fill="white" transform="translate(0 0.310059)"/>
</clipPath>
</defs>
</svg>
