<svg width="20" height="21" viewBox="0 0 20 21" fill="none" xmlns="http://www.w3.org/2000/svg">
<g clip-path="url(#clip0_8_12561)">
<path opacity="0.12" d="M3.33203 6.81006C3.33203 5.40989 3.33203 4.70989 3.60453 4.17506C3.84421 3.70467 4.22665 3.32224 4.69703 3.08256C5.23186 2.81006 5.93186 2.81006 7.33203 2.81006H12.6654C14.0655 2.81006 14.7655 2.81006 15.3004 3.08256C15.7708 3.32222 16.1532 3.70466 16.3929 4.17506C16.6654 4.70989 16.6654 5.40989 16.6654 6.81006V17.8101L14.3737 16.1434L12.2904 17.8101L9.9987 16.1434L7.70703 17.8101L5.6237 16.1434L3.33203 17.8101V6.81006Z" fill="#9DA4AE"/>
<path d="M7.4987 9.06006L9.16536 10.7267L12.9154 6.97673M16.6654 17.8101V6.81006C16.6654 5.40989 16.6654 4.70989 16.3929 4.17506C16.1532 3.70466 15.7708 3.32222 15.3004 3.08256C14.7655 2.81006 14.0655 2.81006 12.6654 2.81006H7.33203C5.93186 2.81006 5.23186 2.81006 4.69703 3.08256C4.22665 3.32224 3.84421 3.70467 3.60453 4.17506C3.33203 4.70989 3.33203 5.40989 3.33203 6.81006V17.8101L5.6237 16.1434L7.70703 17.8101L9.9987 16.1434L12.2904 17.8101L14.3737 16.1434L16.6654 17.8101Z" stroke="#9DA4AE" stroke-width="1.66667" stroke-linecap="round" stroke-linejoin="round"/>
</g>
<defs>
<clipPath id="clip0_8_12561">
<rect width="20" height="20" fill="white" transform="translate(0 0.310059)"/>
</clipPath>
</defs>
</svg>
