<svg width="20" height="21" viewBox="0 0 20 21" fill="none" xmlns="http://www.w3.org/2000/svg">
<g clip-path="url(#clip0_8_12588)">
<path opacity="0.12" d="M15 2.81006H5V17.8101H15V2.81006Z" fill="#9DA4AE"/>
<path d="M7.91536 6.14339H12.082M7.91536 9.47673H12.082M7.91536 12.8101H12.082M14.9987 17.8101V5.47673C14.9987 4.54331 14.9987 4.07656 14.817 3.72006C14.6573 3.40646 14.4023 3.1515 14.0887 2.99173C13.7322 2.81006 13.2654 2.81006 12.332 2.81006H7.66536C6.73195 2.81006 6.2652 2.81006 5.9087 2.99173C5.5951 3.15151 5.34015 3.40647 5.18036 3.72006C4.9987 4.07656 4.9987 4.54339 4.9987 5.47673V17.8101M16.6654 17.8101H3.33203" stroke="#9DA4AE" stroke-width="1.66667" stroke-linecap="round" stroke-linejoin="round"/>
</g>
<defs>
<clipPath id="clip0_8_12588">
<rect width="20" height="20" fill="white" transform="translate(0 0.310059)"/>
</clipPath>
</defs>
</svg>
