<svg width="20" height="21" viewBox="0 0 20 21" fill="none" xmlns="http://www.w3.org/2000/svg">
<g clip-path="url(#clip0_8_12620)">
<path opacity="0.12" d="M1.66797 9.64323C1.66797 8.70981 1.66797 8.24306 1.84964 7.88656C2.00942 7.57297 2.26438 7.31801 2.57797 7.15823C2.93447 6.97656 3.4013 6.97656 4.33464 6.97656H10.668C11.6014 6.97656 12.0681 6.97656 12.4246 7.15823C12.7382 7.31798 12.9932 7.57298 13.153 7.88656C13.3346 8.24306 13.3346 8.7099 13.3346 9.64323V15.9766C13.3346 16.91 13.3346 17.3767 13.153 17.7332C12.9932 18.0468 12.7382 18.3018 12.4246 18.4616C12.0681 18.6432 11.6014 18.6432 10.668 18.6432H4.33464C3.40122 18.6432 2.93447 18.6432 2.57797 18.4616C2.26437 18.3018 2.00941 18.0468 1.84964 17.7332C1.66797 17.3767 1.66797 16.91 1.66797 15.9766V9.64323Z" fill="#9DA4AE"/>
<path d="M5.0013 12.8099L6.66797 14.4766L10.418 10.7266M6.66797 6.97656V4.64323C6.66797 3.70981 6.66797 3.24306 6.84964 2.88656C7.00942 2.57297 7.26438 2.31801 7.57797 2.15823C7.93447 1.97656 8.4013 1.97656 9.33464 1.97656H15.668C16.6014 1.97656 17.0681 1.97656 17.4246 2.15823C17.7382 2.31798 17.9932 2.57298 18.153 2.88656C18.3346 3.24306 18.3346 3.7099 18.3346 4.64323V10.9766C18.3346 11.91 18.3346 12.3767 18.153 12.7332C17.9932 13.0468 17.7382 13.3018 17.4246 13.4616C17.0681 13.6432 16.6014 13.6432 15.668 13.6432H13.3346M4.33464 18.6432H10.668C11.6014 18.6432 12.0681 18.6432 12.4246 18.4616C12.7382 18.3018 12.9932 18.0468 13.153 17.7332C13.3346 17.3767 13.3346 16.91 13.3346 15.9766V9.64323C13.3346 8.70981 13.3346 8.24306 13.153 7.88656C12.9932 7.57296 12.7382 7.318 12.4246 7.15823C12.0681 6.97656 11.6014 6.97656 10.668 6.97656H4.33464C3.40122 6.97656 2.93447 6.97656 2.57797 7.15823C2.26438 7.31801 2.00942 7.57297 1.84964 7.88656C1.66797 8.24306 1.66797 8.7099 1.66797 9.64323V15.9766C1.66797 16.91 1.66797 17.3767 1.84964 17.7332C2.00939 18.0468 2.26439 18.3018 2.57797 18.4616C2.93447 18.6432 3.4013 18.6432 4.33464 18.6432Z" stroke="#9DA4AE" stroke-width="1.66667" stroke-linecap="round" stroke-linejoin="round"/>
</g>
<defs>
<clipPath id="clip0_8_12620">
<rect width="20" height="20" fill="white" transform="translate(0 0.310059)"/>
</clipPath>
</defs>
</svg>
