<svg width="20" height="21" viewBox="0 0 20 21" fill="none" xmlns="http://www.w3.org/2000/svg">
<g clip-path="url(#clip0_8_12570)">
<path opacity="0.12" d="M4.33464 3.64355H9.0013C9.93472 3.64355 10.4015 3.64355 10.758 3.82522C11.0716 3.98497 11.3266 4.23997 11.4863 4.55355C11.668 4.91005 11.668 5.37689 11.668 6.31022V14.4769H8.33464C8.33464 13.0961 7.21539 11.9769 5.83464 11.9769C4.45922 11.9769 3.3433 13.0876 3.33464 14.4609C3.0078 14.441 2.77589 14.3961 2.57797 14.2952C2.26437 14.1354 2.00941 13.8805 1.84964 13.5669C1.66797 13.2104 1.66797 12.7436 1.66797 11.8102V6.31022C1.66797 5.3768 1.66797 4.91005 1.84964 4.55355C2.00942 4.23996 2.26438 3.985 2.57797 3.82522C2.93447 3.64355 3.4013 3.64355 4.33464 3.64355Z" fill="#9DA4AE"/>
<path d="M11.668 6.14355H13.6157C13.8195 6.14355 13.9214 6.14355 14.0173 6.16655C14.1023 6.18698 14.1836 6.22067 14.2582 6.26639C14.3423 6.31789 14.4144 6.38997 14.5585 6.53405L17.9441 9.91972C18.0882 10.0638 18.1603 10.1359 18.2118 10.22C18.2575 10.2945 18.2912 10.3758 18.3116 10.4609C18.3346 10.5568 18.3346 10.6587 18.3346 10.8625V13.2269C18.3346 13.6151 18.3346 13.8093 18.2712 13.9625C18.1866 14.1667 18.0244 14.3289 17.8202 14.4135C17.6671 14.4769 17.4729 14.4769 17.0846 14.4769M12.918 14.4769H11.668M11.668 14.4769V6.31022C11.668 5.3768 11.668 4.91005 11.4863 4.55355C11.3265 4.23995 11.0716 3.98499 10.758 3.82522C10.4015 3.64355 9.93472 3.64355 9.0013 3.64355H4.33464C3.40122 3.64355 2.93447 3.64355 2.57797 3.82522C2.26438 3.985 2.00942 4.23996 1.84964 4.55355C1.66797 4.91005 1.66797 5.37689 1.66797 6.31022V12.8102C1.66797 13.7307 2.41414 14.4769 3.33464 14.4769M11.668 14.4769H8.33464M3.33464 14.4769C3.33464 15.8576 4.45389 16.9769 5.83464 16.9769C7.21539 16.9769 8.33464 15.8576 8.33464 14.4769M3.33464 14.4769C3.33464 13.0961 4.45389 11.9769 5.83464 11.9769C7.21539 11.9769 8.33464 13.0961 8.33464 14.4769M17.0846 14.8936C17.0846 16.0441 16.1519 16.9769 15.0013 16.9769C13.8507 16.9769 12.918 16.0441 12.918 14.8936C12.918 13.743 13.8507 12.8102 15.0013 12.8102C16.1519 12.8102 17.0846 13.743 17.0846 14.8936Z" stroke="#9DA4AE" stroke-width="1.66667" stroke-linecap="round" stroke-linejoin="round"/>
</g>
<defs>
<clipPath id="clip0_8_12570">
<rect width="20" height="20" fill="white" transform="translate(0 0.310059)"/>
</clipPath>
</defs>
</svg>
