<svg width="20" height="21" viewBox="0 0 20 21" fill="none" xmlns="http://www.w3.org/2000/svg">
<g clip-path="url(#clip0_8_12625)">
<path opacity="0.12" d="M7.47539 9.47689C7.1753 9.47689 7.02522 9.47689 6.88014 9.45105C6.75135 9.42808 6.62571 9.39004 6.5058 9.33772C6.3708 9.27872 6.2458 9.19547 5.99614 9.02905L1.66797 6.14355C1.66797 4.7628 2.7873 3.64355 4.16797 3.64355H15.8346C17.2154 3.64355 18.3346 4.7628 18.3346 6.14355L14.0065 9.02905C13.7567 9.19547 13.6319 9.27872 13.4968 9.33772C13.3769 9.39004 13.2513 9.42808 13.1225 9.45105C12.9774 9.47689 12.8273 9.47689 12.5272 9.47689H7.47539Z" fill="#9DA4AE"/>
<path d="M1.66797 6.14355L5.99614 9.02905C6.24589 9.19547 6.37072 9.27872 6.5058 9.33772C6.62572 9.39005 6.7513 9.42805 6.88013 9.45105C7.02513 9.47689 7.1753 9.47689 7.47539 9.47689H12.5272C12.8273 9.47689 12.9774 9.47689 13.1225 9.45105C13.2513 9.42808 13.3769 9.39004 13.4968 9.33772C13.6319 9.27872 13.7567 9.19547 14.0065 9.02905L18.3346 6.14355M5.66797 16.9769H14.3346C15.7348 16.9769 16.4348 16.9769 16.9696 16.7044C17.44 16.4647 17.8225 16.0823 18.0621 15.6119C18.3346 15.0771 18.3346 14.3771 18.3346 12.9769V7.64355C18.3346 6.24339 18.3346 5.54339 18.0621 5.00855C17.8225 4.53816 17.44 4.15572 16.9696 3.91605C16.4348 3.64355 15.7348 3.64355 14.3346 3.64355H5.66797C4.2678 3.64355 3.5678 3.64355 3.03297 3.91605C2.56258 4.15573 2.18015 4.53817 1.94047 5.00855C1.66797 5.54339 1.66797 6.24339 1.66797 7.64355V12.9769C1.66797 14.3771 1.66797 15.0771 1.94047 15.6119C2.18013 16.0823 2.56257 16.4647 3.03297 16.7044C3.5678 16.9769 4.2678 16.9769 5.66797 16.9769Z" stroke="#9DA4AE" stroke-width="1.66667" stroke-linecap="round" stroke-linejoin="round"/>
</g>
<defs>
<clipPath id="clip0_8_12625">
<rect width="20" height="20" fill="white" transform="translate(0 0.310059)"/>
</clipPath>
</defs>
</svg>
