<svg width="24" height="25" viewBox="0 0 24 25" fill="none" xmlns="http://www.w3.org/2000/svg">
<g clip-path="url(#clip0_8_13094)">
<path d="M16.5268 8.60019C16.5268 7.16803 15.9579 5.79452 14.9452 4.78182C13.9325 3.76912 12.559 3.2002 11.1268 3.2002C9.69467 3.2002 8.32116 3.76912 7.30846 4.78182C6.29577 5.79452 5.72684 7.16803 5.72684 8.60019C5.72684 11.3814 5.02524 13.2856 4.24154 14.5451C3.58054 15.6075 3.24994 16.1387 3.26204 16.2869C3.27544 16.451 3.31024 16.5135 3.44244 16.6116C3.56184 16.7002 4.10024 16.7002 5.17684 16.7002H17.0768C18.1535 16.7002 18.6918 16.7002 18.8112 16.6116C18.9434 16.5135 18.9782 16.451 18.9916 16.2869C19.0037 16.1387 18.6732 15.6075 18.0121 14.5451C17.2284 13.2856 16.5268 11.3814 16.5268 8.60019Z" fill="white" fill-opacity="0.01"/>
<path d="M8.74564 20.3002C9.38024 20.8603 10.2138 21.2002 11.1268 21.2002C12.0398 21.2002 12.8734 20.8603 13.5081 20.3002M16.5268 8.60019C16.5268 7.16803 15.9579 5.79452 14.9452 4.78182C13.9325 3.76912 12.559 3.2002 11.1268 3.2002C9.69467 3.2002 8.32116 3.76912 7.30846 4.78182C6.29577 5.79452 5.72684 7.16803 5.72684 8.60019C5.72684 11.3814 5.02524 13.2856 4.24154 14.5451C3.58054 15.6075 3.24994 16.1387 3.26204 16.2869C3.27544 16.451 3.31024 16.5135 3.44244 16.6116C3.56184 16.7002 4.10024 16.7002 5.17684 16.7002H17.0768C18.1535 16.7002 18.6918 16.7002 18.8112 16.6116C18.9434 16.5135 18.9782 16.451 18.9916 16.2869C19.0037 16.1387 18.6732 15.6075 18.0121 14.5451C17.2284 13.2856 16.5268 11.3814 16.5268 8.60019Z" stroke="#6C737F" stroke-width="2" stroke-linecap="round" stroke-linejoin="round"/>
</g>
<defs>
<clipPath id="clip0_8_13094">
<rect width="24" height="24" fill="white" transform="translate(0 0.200195)"/>
</clipPath>
</defs>
</svg>
