<svg width="20" height="21" viewBox="0 0 20 21" fill="none" xmlns="http://www.w3.org/2000/svg">
<g clip-path="url(#clip0_8_12552)">
<path opacity="0.12" d="M14.4592 14.0601H7.32751C6.50243 14.0601 6.08984 14.0601 5.75859 13.9079C5.46672 13.7737 5.21982 13.5581 5.04759 13.287C4.85209 12.9793 4.79651 12.5705 4.68526 11.7529L3.80859 5.31006H17.5268C17.8033 5.31006 17.9415 5.31006 18.0388 5.36673C18.1241 5.41645 18.189 5.49486 18.2218 5.58798C18.2593 5.69414 18.2334 5.82989 18.1818 6.10148L17.0787 11.8924C16.9318 12.664 16.8583 13.0497 16.6593 13.3386C16.484 13.5932 16.2413 13.7941 15.9583 13.9187C15.6373 14.0601 15.2446 14.0601 14.4592 14.0601Z" fill="#9DA4AE"/>
<path d="M1.66797 1.97656H2.75647C2.96147 1.97656 3.06397 1.97656 3.14647 2.01423C3.21919 2.04747 3.2808 2.10093 3.32397 2.16823C3.37289 2.24448 3.38739 2.34598 3.41647 2.54898L3.81072 5.3099M3.81072 5.3099L4.68739 11.7527C4.79855 12.5703 4.85414 12.9791 5.04964 13.2868C5.22189 13.558 5.4688 13.7736 5.76072 13.9077C6.09197 14.0599 6.50447 14.0599 7.32964 14.0599H14.4612C15.2466 14.0599 15.6394 14.0599 15.9604 13.9186C16.2434 13.7939 16.4861 13.593 16.6615 13.3384C16.8603 13.0496 16.9338 12.6638 17.0808 11.8922L18.1838 6.10131C18.2356 5.82973 18.2614 5.69398 18.2239 5.58781C18.191 5.49468 18.1261 5.41626 18.0408 5.36656C17.9436 5.3099 17.8055 5.3099 17.529 5.3099H3.81072ZM8.33464 17.8099C8.33464 18.2701 7.96155 18.6432 7.5013 18.6432C7.04105 18.6432 6.66797 18.2701 6.66797 17.8099C6.66797 17.3496 7.04105 16.9766 7.5013 16.9766C7.96155 16.9766 8.33464 17.3496 8.33464 17.8099ZM15.0013 17.8099C15.0013 18.2701 14.6282 18.6432 14.168 18.6432C13.7077 18.6432 13.3346 18.2701 13.3346 17.8099C13.3346 17.3496 13.7077 16.9766 14.168 16.9766C14.6282 16.9766 15.0013 17.3496 15.0013 17.8099Z" stroke="#9DA4AE" stroke-width="1.66667" stroke-linecap="round" stroke-linejoin="round"/>
</g>
<defs>
<clipPath id="clip0_8_12552">
<rect width="20" height="20" fill="white" transform="translate(0 0.310059)"/>
</clipPath>
</defs>
</svg>
