<svg width="20" height="19" viewBox="0 0 20 19" fill="none" xmlns="http://www.w3.org/2000/svg">
<path opacity="0.12" d="M2.5 6.96453C2.5 6.48586 2.5 6.24653 2.56167 6.0262C2.61631 5.83097 2.70611 5.64735 2.82667 5.48436C2.96275 5.30036 3.15167 5.15345 3.5295 4.85953L9.18142 0.463614C9.47417 0.235947 9.62058 0.12203 9.78225 0.0782804C9.92485 0.0396618 10.0752 0.0396618 10.2178 0.0782804C10.3794 0.12203 10.5258 0.235864 10.8186 0.463614L16.4705 4.85953C16.8483 5.15345 17.0372 5.30036 17.1733 5.48436C17.2938 5.64728 17.3837 5.83095 17.4383 6.0262C17.5 6.24653 17.5 6.48586 17.5 6.96453V12.9936C17.5 13.927 17.5 14.3937 17.3183 14.7503C17.1586 15.0639 16.9036 15.3188 16.59 15.4786C16.2335 15.6603 15.7667 15.6603 14.8333 15.6603H5.16667C4.23325 15.6603 3.7665 15.6603 3.41 15.4786C3.0964 15.3188 2.84144 15.0639 2.68167 14.7503C2.5 14.3937 2.5 13.927 2.5 12.9936V6.96453Z" fill="#6366F1"/>
<path d="M6.77167 9.82695C7.14167 11.2646 8.44683 12.3269 10 12.3269C11.5532 12.3269 12.8582 11.2646 13.2283 9.82695M9.18142 0.463614L3.5295 4.85953C3.15167 5.15345 2.96283 5.30036 2.82667 5.48436C2.70611 5.64735 2.61631 5.83097 2.56167 6.0262C2.5 6.24653 2.5 6.48586 2.5 6.96445V12.9936C2.5 13.927 2.5 14.3937 2.68167 14.7503C2.84142 15.0639 3.09642 15.3189 3.41 15.4786C3.7665 15.6603 4.23333 15.6603 5.16667 15.6603H14.8333C15.7667 15.6603 16.2335 15.6603 16.59 15.4786C16.9036 15.3188 17.1586 15.0639 17.3183 14.7503C17.5 14.3937 17.5 13.927 17.5 12.9936V6.96453C17.5 6.48586 17.5 6.24653 17.4383 6.0262C17.3837 5.83098 17.2939 5.64737 17.1733 5.48436C17.0372 5.30036 16.8483 5.15345 16.4705 4.85953L10.8186 0.463614C10.5258 0.235947 10.3794 0.12203 10.2177 0.0782804C10.0752 0.0396618 9.92485 0.0396618 9.78225 0.0782804C9.62058 0.12203 9.47417 0.235864 9.18142 0.463614Z" stroke="#6366F1" stroke-width="1.66667" stroke-linecap="round" stroke-linejoin="round"/>
</svg>
