<svg width="40" height="41" viewBox="0 0 40 41" fill="none" xmlns="http://www.w3.org/2000/svg">
<g clip-path="url(#clip0_8_13069)">
<path d="M19 27.2002C23.4183 27.2002 27 23.6185 27 19.2002C27 14.7819 23.4183 11.2002 19 11.2002C14.5817 11.2002 11 14.7819 11 19.2002C11 23.6185 14.5817 27.2002 19 27.2002Z" fill="white" fill-opacity="0.01"/>
<path d="M29 29.2002L24.65 24.8502M27 19.2002C27 23.6185 23.4183 27.2002 19 27.2002C14.5817 27.2002 11 23.6185 11 19.2002C11 14.7819 14.5817 11.2002 19 11.2002C23.4183 11.2002 27 14.7819 27 19.2002Z" stroke="#6C737F" stroke-width="2" stroke-linecap="round" stroke-linejoin="round"/>
</g>
<defs>
<clipPath id="clip0_8_13069">
<rect width="24" height="24" fill="white" transform="translate(8 8.2002)"/>
</clipPath>
</defs>
</svg>
