<svg width="20" height="21" viewBox="0 0 20 21" fill="none" xmlns="http://www.w3.org/2000/svg">
<g clip-path="url(#clip0_8_12597)">
<path opacity="0.12" d="M15 6.97656C16.3807 6.97656 17.5 5.85731 17.5 4.47656C17.5 3.0959 16.3807 1.97656 15 1.97656C13.6192 1.97656 12.5 3.0959 12.5 4.47656C12.5 5.85731 13.6192 6.97656 15 6.97656ZM5 12.8099C6.38075 12.8099 7.5 11.6906 7.5 10.3099C7.5 8.92915 6.38075 7.8099 5 7.8099C3.61925 7.8099 2.5 8.92915 2.5 10.3099C2.5 11.6906 3.61925 12.8099 5 12.8099ZM15 18.6432C16.3807 18.6432 17.5 17.524 17.5 16.1432C17.5 14.7625 16.3807 13.6432 15 13.6432C13.6192 13.6432 12.5 14.7625 12.5 16.1432C12.5 17.524 13.6192 18.6432 15 18.6432Z" fill="#9DA4AE"/>
<path d="M7.15833 11.5682L12.85 14.8849M12.8417 5.7349L7.15833 9.05156M17.5 4.47656C17.5 5.85731 16.3807 6.97656 15 6.97656C13.6192 6.97656 12.5 5.85731 12.5 4.47656C12.5 3.0959 13.6192 1.97656 15 1.97656C16.3807 1.97656 17.5 3.0959 17.5 4.47656ZM7.5 10.3099C7.5 11.6906 6.38075 12.8099 5 12.8099C3.61925 12.8099 2.5 11.6906 2.5 10.3099C2.5 8.92915 3.61925 7.8099 5 7.8099C6.38075 7.8099 7.5 8.92915 7.5 10.3099ZM17.5 16.1432C17.5 17.524 16.3807 18.6432 15 18.6432C13.6192 18.6432 12.5 17.524 12.5 16.1432C12.5 14.7625 13.6192 13.6432 15 13.6432C16.3807 13.6432 17.5 14.7625 17.5 16.1432Z" stroke="#9DA4AE" stroke-width="1.66667" stroke-linecap="round" stroke-linejoin="round"/>
</g>
<defs>
<clipPath id="clip0_8_12597">
<rect width="20" height="20" fill="white" transform="translate(0 0.310059)"/>
</clipPath>
</defs>
</svg>
